<svg width="173" height="22" viewBox="0 0 173 22" fill="none" xmlns="http://www.w3.org/2000/svg">
<path d="M8.14 16.02L3.42 9.82V16.02H0V1.98H3.42V8.14L8.1 1.98H12.12L6.68 8.86L12.32 16.02H8.14Z" fill="black"/>
<path d="M24.4653 10.26C24.4653 10.58 24.4453 10.9133 24.4053 11.26H16.6653C16.7186 11.9533 16.9386 12.4867 17.3253 12.86C17.7253 13.22 18.212 13.4 18.7853 13.4C19.6386 13.4 20.232 13.04 20.5653 12.32H24.2053C24.0186 13.0533 23.6786 13.7133 23.1853 14.3C22.7053 14.8867 22.0986 15.3467 21.3653 15.68C20.632 16.0133 19.812 16.18 18.9053 16.18C17.812 16.18 16.8386 15.9467 15.9853 15.48C15.132 15.0133 14.4653 14.3467 13.9853 13.48C13.5053 12.6133 13.2653 11.6 13.2653 10.44C13.2653 9.28 13.4986 8.26667 13.9653 7.4C14.4453 6.53333 15.112 5.86667 15.9653 5.4C16.8186 4.93333 17.7986 4.7 18.9053 4.7C19.9853 4.7 20.9453 4.92667 21.7853 5.38C22.6253 5.83333 23.2786 6.48 23.7453 7.32C24.2253 8.16 24.4653 9.14 24.4653 10.26ZM20.9653 9.36C20.9653 8.77333 20.7653 8.30667 20.3653 7.96C19.9653 7.61333 19.4653 7.44 18.8653 7.44C18.292 7.44 17.8053 7.60667 17.4053 7.94C17.0186 8.27333 16.7786 8.74667 16.6853 9.36H20.9653Z" fill="black"/>
<path d="M33.0695 4.74C34.3762 4.74 35.4162 5.16667 36.1895 6.02C36.9762 6.86 37.3695 8.02 37.3695 9.5V16.02H33.9695V9.96C33.9695 9.21333 33.7762 8.63333 33.3895 8.22C33.0029 7.80667 32.4829 7.6 31.8295 7.6C31.1762 7.6 30.6562 7.80667 30.2695 8.22C29.8829 8.63333 29.6895 9.21333 29.6895 9.96V16.02H26.2695V4.86H29.6895V6.34C30.0362 5.84667 30.5029 5.46 31.0895 5.18C31.6762 4.88667 32.3362 4.74 33.0695 4.74Z" fill="black"/>
<path d="M42.9461 13.2H47.7861V16.02H39.1261V13.3L43.7661 7.68H39.1661V4.86H47.6861V7.58L42.9461 13.2Z" fill="black"/>
<path d="M51.388 3.7C50.788 3.7 50.2946 3.52667 49.908 3.18C49.5346 2.82 49.348 2.38 49.348 1.86C49.348 1.32667 49.5346 0.886667 49.908 0.54C50.2946 0.18 50.788 0 51.388 0C51.9746 0 52.4546 0.18 52.828 0.54C53.2146 0.886667 53.408 1.32667 53.408 1.86C53.408 2.38 53.2146 2.82 52.828 3.18C52.4546 3.52667 51.9746 3.7 51.388 3.7ZM53.088 4.86V16.02H49.668V4.86H53.088Z" fill="black"/>
<path d="M66.0864 10.26C66.0864 10.58 66.0664 10.9133 66.0264 11.26H58.2864C58.3397 11.9533 58.5597 12.4867 58.9464 12.86C59.3464 13.22 59.8331 13.4 60.4064 13.4C61.2597 13.4 61.8531 13.04 62.1864 12.32H65.8264C65.6397 13.0533 65.2997 13.7133 64.8064 14.3C64.3264 14.8867 63.7197 15.3467 62.9864 15.68C62.2531 16.0133 61.4331 16.18 60.5264 16.18C59.4331 16.18 58.4597 15.9467 57.6064 15.48C56.7531 15.0133 56.0864 14.3467 55.6064 13.48C55.1264 12.6133 54.8864 11.6 54.8864 10.44C54.8864 9.28 55.1197 8.26667 55.5864 7.4C56.0664 6.53333 56.7331 5.86667 57.5864 5.4C58.4397 4.93333 59.4197 4.7 60.5264 4.7C61.6064 4.7 62.5664 4.92667 63.4064 5.38C64.2464 5.83333 64.8997 6.48 65.3664 7.32C65.8464 8.16 66.0864 9.14 66.0864 10.26ZM62.5864 9.36C62.5864 8.77333 62.3864 8.30667 61.9864 7.96C61.5864 7.61333 61.0864 7.44 60.4864 7.44C59.9131 7.44 59.4264 7.60667 59.0264 7.94C58.6397 8.27333 58.3997 8.74667 58.3064 9.36H62.5864Z" fill="black"/>
<path d="M75.5489 4.72V7.56H80.1289V10.2H75.5489V13.28H80.7289V16.02H72.1289V1.98H80.7289V4.72H75.5489Z" fill="black"/>
<path d="M97.1892 4.74C98.5759 4.74 99.6759 5.16 100.489 6C101.316 6.84 101.729 8.00667 101.729 9.5V16.02H98.3292V9.96C98.3292 9.24 98.1359 8.68667 97.7492 8.3C97.3759 7.9 96.8559 7.7 96.1892 7.7C95.5226 7.7 94.9959 7.9 94.6092 8.3C94.2359 8.68667 94.0492 9.24 94.0492 9.96V16.02H90.6492V9.96C90.6492 9.24 90.4559 8.68667 90.0692 8.3C89.6959 7.9 89.1759 7.7 88.5092 7.7C87.8426 7.7 87.3159 7.9 86.9292 8.3C86.5559 8.68667 86.3692 9.24 86.3692 9.96V16.02H82.9492V4.86H86.3692V6.26C86.7159 5.79333 87.1692 5.42667 87.7292 5.16C88.2892 4.88 88.9226 4.74 89.6292 4.74C90.4692 4.74 91.2159 4.92 91.8692 5.28C92.5359 5.64 93.0559 6.15333 93.4292 6.82C93.8159 6.20667 94.3426 5.70667 95.0092 5.32C95.6759 4.93333 96.4025 4.74 97.1892 4.74Z" fill="black"/>
<path d="M107.541 6.44C107.874 5.92 108.334 5.5 108.921 5.18C109.508 4.86 110.194 4.7 110.981 4.7C111.901 4.7 112.734 4.93333 113.481 5.4C114.228 5.86667 114.814 6.53333 115.241 7.4C115.681 8.26667 115.901 9.27333 115.901 10.42C115.901 11.5667 115.681 12.58 115.241 13.46C114.814 14.3267 114.228 15 113.481 15.48C112.734 15.9467 111.901 16.18 110.981 16.18C110.208 16.18 109.521 16.02 108.921 15.7C108.334 15.38 107.874 14.9667 107.541 14.46V21.34H104.121V4.86H107.541V6.44ZM112.421 10.42C112.421 9.56667 112.181 8.9 111.701 8.42C111.234 7.92667 110.654 7.68 109.961 7.68C109.281 7.68 108.701 7.92667 108.221 8.42C107.754 8.91333 107.521 9.58667 107.521 10.44C107.521 11.2933 107.754 11.9667 108.221 12.46C108.701 12.9533 109.281 13.2 109.961 13.2C110.641 13.2 111.221 12.9533 111.701 12.46C112.181 11.9533 112.421 11.2733 112.421 10.42Z" fill="black"/>
<path d="M121.115 6.72C121.515 6.10667 122.015 5.62667 122.615 5.28C123.215 4.92 123.882 4.74 124.615 4.74V8.36H123.675C122.822 8.36 122.182 8.54667 121.755 8.92C121.329 9.28 121.115 9.92 121.115 10.84V16.02H117.695V4.86H121.115V6.72Z" fill="black"/>
<path d="M136.77 10.26C136.77 10.58 136.75 10.9133 136.71 11.26H128.97C129.023 11.9533 129.243 12.4867 129.63 12.86C130.03 13.22 130.517 13.4 131.09 13.4C131.943 13.4 132.537 13.04 132.87 12.32H136.51C136.323 13.0533 135.983 13.7133 135.49 14.3C135.01 14.8867 134.403 15.3467 133.67 15.68C132.937 16.0133 132.117 16.18 131.21 16.18C130.117 16.18 129.143 15.9467 128.29 15.48C127.437 15.0133 126.77 14.3467 126.29 13.48C125.81 12.6133 125.57 11.6 125.57 10.44C125.57 9.28 125.803 8.26667 126.27 7.4C126.75 6.53333 127.417 5.86667 128.27 5.4C129.123 4.93333 130.103 4.7 131.21 4.7C132.29 4.7 133.25 4.92667 134.09 5.38C134.93 5.83333 135.583 6.48 136.05 7.32C136.53 8.16 136.77 9.14 136.77 10.26ZM133.27 9.36C133.27 8.77333 133.07 8.30667 132.67 7.96C132.27 7.61333 131.77 7.44 131.17 7.44C130.597 7.44 130.11 7.60667 129.71 7.94C129.323 8.27333 129.083 8.74667 128.99 9.36H133.27Z" fill="black"/>
<path d="M143.114 16.18C142.141 16.18 141.274 16.0133 140.514 15.68C139.754 15.3467 139.154 14.8933 138.714 14.32C138.274 13.7333 138.028 13.08 137.974 12.36H141.354C141.394 12.7467 141.574 13.06 141.894 13.3C142.214 13.54 142.608 13.66 143.074 13.66C143.501 13.66 143.828 13.58 144.054 13.42C144.294 13.2467 144.414 13.0267 144.414 12.76C144.414 12.44 144.248 12.2067 143.914 12.06C143.581 11.9 143.041 11.7267 142.294 11.54C141.494 11.3533 140.828 11.16 140.294 10.96C139.761 10.7467 139.301 10.42 138.914 9.98C138.528 9.52667 138.334 8.92 138.334 8.16C138.334 7.52 138.508 6.94 138.854 6.42C139.214 5.88667 139.734 5.46667 140.414 5.16C141.108 4.85333 141.928 4.7 142.874 4.7C144.274 4.7 145.374 5.04667 146.174 5.74C146.988 6.43333 147.454 7.35333 147.574 8.5H144.414C144.361 8.11333 144.188 7.80667 143.894 7.58C143.614 7.35333 143.241 7.24 142.774 7.24C142.374 7.24 142.068 7.32 141.854 7.48C141.641 7.62667 141.534 7.83333 141.534 8.1C141.534 8.42 141.701 8.66 142.034 8.82C142.381 8.98 142.914 9.14 143.634 9.3C144.461 9.51333 145.134 9.72667 145.654 9.94C146.174 10.14 146.628 10.4733 147.014 10.94C147.414 11.3933 147.621 12.0067 147.634 12.78C147.634 13.4333 147.448 14.02 147.074 14.54C146.714 15.0467 146.188 15.4467 145.494 15.74C144.814 16.0333 144.021 16.18 143.114 16.18Z" fill="black"/>
<path d="M149.047 10.42C149.047 9.27333 149.26 8.26667 149.687 7.4C150.127 6.53333 150.72 5.86667 151.467 5.4C152.213 4.93333 153.047 4.7 153.967 4.7C154.753 4.7 155.44 4.86 156.027 5.18C156.627 5.5 157.087 5.92 157.407 6.44V4.86H160.827V16.02H157.407V14.44C157.073 14.96 156.607 15.38 156.007 15.7C155.42 16.02 154.733 16.18 153.947 16.18C153.04 16.18 152.213 15.9467 151.467 15.48C150.72 15 150.127 14.3267 149.687 13.46C149.26 12.58 149.047 11.5667 149.047 10.42ZM157.407 10.44C157.407 9.58667 157.167 8.91333 156.687 8.42C156.22 7.92667 155.647 7.68 154.967 7.68C154.287 7.68 153.707 7.92667 153.227 8.42C152.76 8.9 152.527 9.56667 152.527 10.42C152.527 11.2733 152.76 11.9533 153.227 12.46C153.707 12.9533 154.287 13.2 154.967 13.2C155.647 13.2 156.22 12.9533 156.687 12.46C157.167 11.9667 157.407 11.2933 157.407 10.44Z" fill="black"/>
<path d="M167.841 16.18C166.867 16.18 166.001 16.0133 165.241 15.68C164.481 15.3467 163.881 14.8933 163.441 14.32C163.001 13.7333 162.754 13.08 162.701 12.36H166.081C166.121 12.7467 166.301 13.06 166.621 13.3C166.941 13.54 167.334 13.66 167.801 13.66C168.227 13.66 168.554 13.58 168.781 13.42C169.021 13.2467 169.141 13.0267 169.141 12.76C169.141 12.44 168.974 12.2067 168.641 12.06C168.307 11.9 167.767 11.7267 167.021 11.54C166.221 11.3533 165.554 11.16 165.021 10.96C164.487 10.7467 164.027 10.42 163.641 9.98C163.254 9.52667 163.061 8.92 163.061 8.16C163.061 7.52 163.234 6.94 163.581 6.42C163.941 5.88667 164.461 5.46667 165.141 5.16C165.834 4.85333 166.654 4.7 167.601 4.7C169.001 4.7 170.101 5.04667 170.901 5.74C171.714 6.43333 172.181 7.35333 172.301 8.5H169.141C169.087 8.11333 168.914 7.80667 168.621 7.58C168.341 7.35333 167.967 7.24 167.501 7.24C167.101 7.24 166.794 7.32 166.581 7.48C166.367 7.62667 166.261 7.83333 166.261 8.1C166.261 8.42 166.427 8.66 166.761 8.82C167.107 8.98 167.641 9.14 168.361 9.3C169.187 9.51333 169.861 9.72667 170.381 9.94C170.901 10.14 171.354 10.4733 171.741 10.94C172.141 11.3933 172.347 12.0067 172.361 12.78C172.361 13.4333 172.174 14.02 171.801 14.54C171.441 15.0467 170.914 15.4467 170.221 15.74C169.541 16.0333 168.747 16.18 167.841 16.18Z" fill="black"/>
</svg>
